<svg xmlns="http://www.w3.org/2000/svg" viewBox="0 0 1200 630" width="1200" height="630">
  <rect width="1200" height="630" fill="#090919"/>
  <g fill="#4f46e5" opacity="0.3">
    <circle cx="0" cy="0" r="1"/><circle cx="0" cy="40" r="1"/><circle cx="0" cy="80" r="1"/><circle cx="0" cy="120" r="1"/><circle cx="0" cy="160" r="1"/><circle cx="0" cy="200" r="1"/><circle cx="0" cy="240" r="1"/><circle cx="0" cy="280" r="1"/><circle cx="0" cy="320" r="1"/><circle cx="0" cy="360" r="1"/><circle cx="0" cy="400" r="1"/><circle cx="0" cy="440" r="1"/><circle cx="0" cy="480" r="1"/><circle cx="0" cy="520" r="1"/><circle cx="0" cy="560" r="1"/><circle cx="0" cy="600" r="1"/><circle cx="40" cy="0" r="1"/><circle cx="40" cy="40" r="1"/><circle cx="40" cy="80" r="1"/><circle cx="40" cy="120" r="1"/><circle cx="40" cy="160" r="1"/><circle cx="40" cy="200" r="1"/><circle cx="40" cy="240" r="1"/><circle cx="40" cy="280" r="1"/><circle cx="40" cy="320" r="1"/><circle cx="40" cy="360" r="1"/><circle cx="40" cy="400" r="1"/><circle cx="40" cy="440" r="1"/><circle cx="40" cy="480" r="1"/><circle cx="40" cy="520" r="1"/><circle cx="40" cy="560" r="1"/><circle cx="40" cy="600" r="1"/><circle cx="80" cy="0" r="1"/><circle cx="80" cy="40" r="1"/><circle cx="80" cy="80" r="1"/><circle cx="80" cy="120" r="1"/><circle cx="80" cy="160" r="1"/><circle cx="80" cy="200" r="1"/><circle cx="80" cy="240" r="1"/><circle cx="80" cy="280" r="1"/><circle cx="80" cy="320" r="1"/><circle cx="80" cy="360" r="1"/><circle cx="80" cy="400" r="1"/><circle cx="80" cy="440" r="1"/><circle cx="80" cy="480" r="1"/><circle cx="80" cy="520" r="1"/><circle cx="80" cy="560" r="1"/><circle cx="80" cy="600" r="1"/><circle cx="120" cy="0" r="1"/><circle cx="120" cy="40" r="1"/><circle cx="120" cy="80" r="1"/><circle cx="120" cy="120" r="1"/><circle cx="120" cy="160" r="1"/><circle cx="120" cy="200" r="1"/><circle cx="120" cy="240" r="1"/><circle cx="120" cy="280" r="1"/><circle cx="120" cy="320" r="1"/><circle cx="120" cy="360" r="1"/><circle cx="120" cy="400" r="1"/><circle cx="120" cy="440" r="1"/><circle cx="120" cy="480" r="1"/><circle cx="120" cy="520" r="1"/><circle cx="120" cy="560" r="1"/><circle cx="120" cy="600" r="1"/><circle cx="160" cy="0" r="1"/><circle cx="160" cy="40" r="1"/><circle cx="160" cy="80" r="1"/><circle cx="160" cy="120" r="1"/><circle cx="160" cy="160" r="1"/><circle cx="160" cy="200" r="1"/><circle cx="160" cy="240" r="1"/><circle cx="160" cy="280" r="1"/><circle cx="160" cy="320" r="1"/><circle cx="160" cy="360" r="1"/><circle cx="160" cy="400" r="1"/><circle cx="160" cy="440" r="1"/><circle cx="160" cy="480" r="1"/><circle cx="160" cy="520" r="1"/><circle cx="160" cy="560" r="1"/><circle cx="160" cy="600" r="1"/><circle cx="200" cy="0" r="1"/><circle cx="200" cy="40" r="1"/><circle cx="200" cy="80" r="1"/><circle cx="200" cy="120" r="1"/><circle cx="200" cy="160" r="1"/><circle cx="200" cy="200" r="1"/><circle cx="200" cy="240" r="1"/><circle cx="200" cy="280" r="1"/><circle cx="200" cy="320" r="1"/><circle cx="200" cy="360" r="1"/><circle cx="200" cy="400" r="1"/><circle cx="200" cy="440" r="1"/><circle cx="200" cy="480" r="1"/><circle cx="200" cy="520" r="1"/><circle cx="200" cy="560" r="1"/><circle cx="200" cy="600" r="1"/><circle cx="240" cy="0" r="1"/><circle cx="240" cy="40" r="1"/><circle cx="240" cy="80" r="1"/><circle cx="240" cy="120" r="1"/><circle cx="240" cy="160" r="1"/><circle cx="240" cy="200" r="1"/><circle cx="240" cy="240" r="1"/><circle cx="240" cy="280" r="1"/><circle cx="240" cy="320" r="1"/><circle cx="240" cy="360" r="1"/><circle cx="240" cy="400" r="1"/><circle cx="240" cy="440" r="1"/><circle cx="240" cy="480" r="1"/><circle cx="240" cy="520" r="1"/><circle cx="240" cy="560" r="1"/><circle cx="240" cy="600" r="1"/><circle cx="280" cy="0" r="1"/><circle cx="280" cy="40" r="1"/><circle cx="280" cy="80" r="1"/><circle cx="280" cy="120" r="1"/><circle cx="280" cy="160" r="1"/><circle cx="280" cy="200" r="1"/><circle cx="280" cy="240" r="1"/><circle cx="280" cy="280" r="1"/><circle cx="280" cy="320" r="1"/><circle cx="280" cy="360" r="1"/><circle cx="280" cy="400" r="1"/><circle cx="280" cy="440" r="1"/><circle cx="280" cy="480" r="1"/><circle cx="280" cy="520" r="1"/><circle cx="280" cy="560" r="1"/><circle cx="280" cy="600" r="1"/><circle cx="320" cy="0" r="1"/><circle cx="320" cy="40" r="1"/><circle cx="320" cy="80" r="1"/><circle cx="320" cy="120" r="1"/><circle cx="320" cy="160" r="1"/><circle cx="320" cy="200" r="1"/><circle cx="320" cy="240" r="1"/><circle cx="320" cy="280" r="1"/><circle cx="320" cy="320" r="1"/><circle cx="320" cy="360" r="1"/><circle cx="320" cy="400" r="1"/><circle cx="320" cy="440" r="1"/><circle cx="320" cy="480" r="1"/><circle cx="320" cy="520" r="1"/><circle cx="320" cy="560" r="1"/><circle cx="320" cy="600" r="1"/><circle cx="360" cy="0" r="1"/><circle cx="360" cy="40" r="1"/><circle cx="360" cy="80" r="1"/><circle cx="360" cy="120" r="1"/><circle cx="360" cy="160" r="1"/><circle cx="360" cy="200" r="1"/><circle cx="360" cy="240" r="1"/><circle cx="360" cy="280" r="1"/><circle cx="360" cy="320" r="1"/><circle cx="360" cy="360" r="1"/><circle cx="360" cy="400" r="1"/><circle cx="360" cy="440" r="1"/><circle cx="360" cy="480" r="1"/><circle cx="360" cy="520" r="1"/><circle cx="360" cy="560" r="1"/><circle cx="360" cy="600" r="1"/><circle cx="400" cy="0" r="1"/><circle cx="400" cy="40" r="1"/><circle cx="400" cy="80" r="1"/><circle cx="400" cy="120" r="1"/><circle cx="400" cy="160" r="1"/><circle cx="400" cy="200" r="1"/><circle cx="400" cy="240" r="1"/><circle cx="400" cy="280" r="1"/><circle cx="400" cy="320" r="1"/><circle cx="400" cy="360" r="1"/><circle cx="400" cy="400" r="1"/><circle cx="400" cy="440" r="1"/><circle cx="400" cy="480" r="1"/><circle cx="400" cy="520" r="1"/><circle cx="400" cy="560" r="1"/><circle cx="400" cy="600" r="1"/><circle cx="440" cy="0" r="1"/><circle cx="440" cy="40" r="1"/><circle cx="440" cy="80" r="1"/><circle cx="440" cy="120" r="1"/><circle cx="440" cy="160" r="1"/><circle cx="440" cy="200" r="1"/><circle cx="440" cy="240" r="1"/><circle cx="440" cy="280" r="1"/><circle cx="440" cy="320" r="1"/><circle cx="440" cy="360" r="1"/><circle cx="440" cy="400" r="1"/><circle cx="440" cy="440" r="1"/><circle cx="440" cy="480" r="1"/><circle cx="440" cy="520" r="1"/><circle cx="440" cy="560" r="1"/><circle cx="440" cy="600" r="1"/><circle cx="480" cy="0" r="1"/><circle cx="480" cy="40" r="1"/><circle cx="480" cy="80" r="1"/><circle cx="480" cy="120" r="1"/><circle cx="480" cy="160" r="1"/><circle cx="480" cy="200" r="1"/><circle cx="480" cy="240" r="1"/><circle cx="480" cy="280" r="1"/><circle cx="480" cy="320" r="1"/><circle cx="480" cy="360" r="1"/><circle cx="480" cy="400" r="1"/><circle cx="480" cy="440" r="1"/><circle cx="480" cy="480" r="1"/><circle cx="480" cy="520" r="1"/><circle cx="480" cy="560" r="1"/><circle cx="480" cy="600" r="1"/><circle cx="520" cy="0" r="1"/><circle cx="520" cy="40" r="1"/><circle cx="520" cy="80" r="1"/><circle cx="520" cy="120" r="1"/><circle cx="520" cy="160" r="1"/><circle cx="520" cy="200" r="1"/><circle cx="520" cy="240" r="1"/><circle cx="520" cy="280" r="1"/><circle cx="520" cy="320" r="1"/><circle cx="520" cy="360" r="1"/><circle cx="520" cy="400" r="1"/><circle cx="520" cy="440" r="1"/><circle cx="520" cy="480" r="1"/><circle cx="520" cy="520" r="1"/><circle cx="520" cy="560" r="1"/><circle cx="520" cy="600" r="1"/><circle cx="560" cy="0" r="1"/><circle cx="560" cy="40" r="1"/><circle cx="560" cy="80" r="1"/><circle cx="560" cy="120" r="1"/><circle cx="560" cy="160" r="1"/><circle cx="560" cy="200" r="1"/><circle cx="560" cy="240" r="1"/><circle cx="560" cy="280" r="1"/><circle cx="560" cy="320" r="1"/><circle cx="560" cy="360" r="1"/><circle cx="560" cy="400" r="1"/><circle cx="560" cy="440" r="1"/><circle cx="560" cy="480" r="1"/><circle cx="560" cy="520" r="1"/><circle cx="560" cy="560" r="1"/><circle cx="560" cy="600" r="1"/><circle cx="600" cy="0" r="1"/><circle cx="600" cy="40" r="1"/><circle cx="600" cy="80" r="1"/><circle cx="600" cy="120" r="1"/><circle cx="600" cy="160" r="1"/><circle cx="600" cy="200" r="1"/><circle cx="600" cy="240" r="1"/><circle cx="600" cy="280" r="1"/><circle cx="600" cy="320" r="1"/><circle cx="600" cy="360" r="1"/><circle cx="600" cy="400" r="1"/><circle cx="600" cy="440" r="1"/><circle cx="600" cy="480" r="1"/><circle cx="600" cy="520" r="1"/><circle cx="600" cy="560" r="1"/><circle cx="600" cy="600" r="1"/><circle cx="640" cy="0" r="1"/><circle cx="640" cy="40" r="1"/><circle cx="640" cy="80" r="1"/><circle cx="640" cy="120" r="1"/><circle cx="640" cy="160" r="1"/><circle cx="640" cy="200" r="1"/><circle cx="640" cy="240" r="1"/><circle cx="640" cy="280" r="1"/><circle cx="640" cy="320" r="1"/><circle cx="640" cy="360" r="1"/><circle cx="640" cy="400" r="1"/><circle cx="640" cy="440" r="1"/><circle cx="640" cy="480" r="1"/><circle cx="640" cy="520" r="1"/><circle cx="640" cy="560" r="1"/><circle cx="640" cy="600" r="1"/><circle cx="680" cy="0" r="1"/><circle cx="680" cy="40" r="1"/><circle cx="680" cy="80" r="1"/><circle cx="680" cy="120" r="1"/><circle cx="680" cy="160" r="1"/><circle cx="680" cy="200" r="1"/><circle cx="680" cy="240" r="1"/><circle cx="680" cy="280" r="1"/><circle cx="680" cy="320" r="1"/><circle cx="680" cy="360" r="1"/><circle cx="680" cy="400" r="1"/><circle cx="680" cy="440" r="1"/><circle cx="680" cy="480" r="1"/><circle cx="680" cy="520" r="1"/><circle cx="680" cy="560" r="1"/><circle cx="680" cy="600" r="1"/><circle cx="720" cy="0" r="1"/><circle cx="720" cy="40" r="1"/><circle cx="720" cy="80" r="1"/><circle cx="720" cy="120" r="1"/><circle cx="720" cy="160" r="1"/><circle cx="720" cy="200" r="1"/><circle cx="720" cy="240" r="1"/><circle cx="720" cy="280" r="1"/><circle cx="720" cy="320" r="1"/><circle cx="720" cy="360" r="1"/><circle cx="720" cy="400" r="1"/><circle cx="720" cy="440" r="1"/><circle cx="720" cy="480" r="1"/><circle cx="720" cy="520" r="1"/><circle cx="720" cy="560" r="1"/><circle cx="720" cy="600" r="1"/><circle cx="760" cy="0" r="1"/><circle cx="760" cy="40" r="1"/><circle cx="760" cy="80" r="1"/><circle cx="760" cy="120" r="1"/><circle cx="760" cy="160" r="1"/><circle cx="760" cy="200" r="1"/><circle cx="760" cy="240" r="1"/><circle cx="760" cy="280" r="1"/><circle cx="760" cy="320" r="1"/><circle cx="760" cy="360" r="1"/><circle cx="760" cy="400" r="1"/><circle cx="760" cy="440" r="1"/><circle cx="760" cy="480" r="1"/><circle cx="760" cy="520" r="1"/><circle cx="760" cy="560" r="1"/><circle cx="760" cy="600" r="1"/><circle cx="800" cy="0" r="1"/><circle cx="800" cy="40" r="1"/><circle cx="800" cy="80" r="1"/><circle cx="800" cy="120" r="1"/><circle cx="800" cy="160" r="1"/><circle cx="800" cy="200" r="1"/><circle cx="800" cy="240" r="1"/><circle cx="800" cy="280" r="1"/><circle cx="800" cy="320" r="1"/><circle cx="800" cy="360" r="1"/><circle cx="800" cy="400" r="1"/><circle cx="800" cy="440" r="1"/><circle cx="800" cy="480" r="1"/><circle cx="800" cy="520" r="1"/><circle cx="800" cy="560" r="1"/><circle cx="800" cy="600" r="1"/><circle cx="840" cy="0" r="1"/><circle cx="840" cy="40" r="1"/><circle cx="840" cy="80" r="1"/><circle cx="840" cy="120" r="1"/><circle cx="840" cy="160" r="1"/><circle cx="840" cy="200" r="1"/><circle cx="840" cy="240" r="1"/><circle cx="840" cy="280" r="1"/><circle cx="840" cy="320" r="1"/><circle cx="840" cy="360" r="1"/><circle cx="840" cy="400" r="1"/><circle cx="840" cy="440" r="1"/><circle cx="840" cy="480" r="1"/><circle cx="840" cy="520" r="1"/><circle cx="840" cy="560" r="1"/><circle cx="840" cy="600" r="1"/><circle cx="880" cy="0" r="1"/><circle cx="880" cy="40" r="1"/><circle cx="880" cy="80" r="1"/><circle cx="880" cy="120" r="1"/><circle cx="880" cy="160" r="1"/><circle cx="880" cy="200" r="1"/><circle cx="880" cy="240" r="1"/><circle cx="880" cy="280" r="1"/><circle cx="880" cy="320" r="1"/><circle cx="880" cy="360" r="1"/><circle cx="880" cy="400" r="1"/><circle cx="880" cy="440" r="1"/><circle cx="880" cy="480" r="1"/><circle cx="880" cy="520" r="1"/><circle cx="880" cy="560" r="1"/><circle cx="880" cy="600" r="1"/><circle cx="920" cy="0" r="1"/><circle cx="920" cy="40" r="1"/><circle cx="920" cy="80" r="1"/><circle cx="920" cy="120" r="1"/><circle cx="920" cy="160" r="1"/><circle cx="920" cy="200" r="1"/><circle cx="920" cy="240" r="1"/><circle cx="920" cy="280" r="1"/><circle cx="920" cy="320" r="1"/><circle cx="920" cy="360" r="1"/><circle cx="920" cy="400" r="1"/><circle cx="920" cy="440" r="1"/><circle cx="920" cy="480" r="1"/><circle cx="920" cy="520" r="1"/><circle cx="920" cy="560" r="1"/><circle cx="920" cy="600" r="1"/><circle cx="960" cy="0" r="1"/><circle cx="960" cy="40" r="1"/><circle cx="960" cy="80" r="1"/><circle cx="960" cy="120" r="1"/><circle cx="960" cy="160" r="1"/><circle cx="960" cy="200" r="1"/><circle cx="960" cy="240" r="1"/><circle cx="960" cy="280" r="1"/><circle cx="960" cy="320" r="1"/><circle cx="960" cy="360" r="1"/><circle cx="960" cy="400" r="1"/><circle cx="960" cy="440" r="1"/><circle cx="960" cy="480" r="1"/><circle cx="960" cy="520" r="1"/><circle cx="960" cy="560" r="1"/><circle cx="960" cy="600" r="1"/><circle cx="1000" cy="0" r="1"/><circle cx="1000" cy="40" r="1"/><circle cx="1000" cy="80" r="1"/><circle cx="1000" cy="120" r="1"/><circle cx="1000" cy="160" r="1"/><circle cx="1000" cy="200" r="1"/><circle cx="1000" cy="240" r="1"/><circle cx="1000" cy="280" r="1"/><circle cx="1000" cy="320" r="1"/><circle cx="1000" cy="360" r="1"/><circle cx="1000" cy="400" r="1"/><circle cx="1000" cy="440" r="1"/><circle cx="1000" cy="480" r="1"/><circle cx="1000" cy="520" r="1"/><circle cx="1000" cy="560" r="1"/><circle cx="1000" cy="600" r="1"/><circle cx="1040" cy="0" r="1"/><circle cx="1040" cy="40" r="1"/><circle cx="1040" cy="80" r="1"/><circle cx="1040" cy="120" r="1"/><circle cx="1040" cy="160" r="1"/><circle cx="1040" cy="200" r="1"/><circle cx="1040" cy="240" r="1"/><circle cx="1040" cy="280" r="1"/><circle cx="1040" cy="320" r="1"/><circle cx="1040" cy="360" r="1"/><circle cx="1040" cy="400" r="1"/><circle cx="1040" cy="440" r="1"/><circle cx="1040" cy="480" r="1"/><circle cx="1040" cy="520" r="1"/><circle cx="1040" cy="560" r="1"/><circle cx="1040" cy="600" r="1"/><circle cx="1080" cy="0" r="1"/><circle cx="1080" cy="40" r="1"/><circle cx="1080" cy="80" r="1"/><circle cx="1080" cy="120" r="1"/><circle cx="1080" cy="160" r="1"/><circle cx="1080" cy="200" r="1"/><circle cx="1080" cy="240" r="1"/><circle cx="1080" cy="280" r="1"/><circle cx="1080" cy="320" r="1"/><circle cx="1080" cy="360" r="1"/><circle cx="1080" cy="400" r="1"/><circle cx="1080" cy="440" r="1"/><circle cx="1080" cy="480" r="1"/><circle cx="1080" cy="520" r="1"/><circle cx="1080" cy="560" r="1"/><circle cx="1080" cy="600" r="1"/><circle cx="1120" cy="0" r="1"/><circle cx="1120" cy="40" r="1"/><circle cx="1120" cy="80" r="1"/><circle cx="1120" cy="120" r="1"/><circle cx="1120" cy="160" r="1"/><circle cx="1120" cy="200" r="1"/><circle cx="1120" cy="240" r="1"/><circle cx="1120" cy="280" r="1"/><circle cx="1120" cy="320" r="1"/><circle cx="1120" cy="360" r="1"/><circle cx="1120" cy="400" r="1"/><circle cx="1120" cy="440" r="1"/><circle cx="1120" cy="480" r="1"/><circle cx="1120" cy="520" r="1"/><circle cx="1120" cy="560" r="1"/><circle cx="1120" cy="600" r="1"/><circle cx="1160" cy="0" r="1"/><circle cx="1160" cy="40" r="1"/><circle cx="1160" cy="80" r="1"/><circle cx="1160" cy="120" r="1"/><circle cx="1160" cy="160" r="1"/><circle cx="1160" cy="200" r="1"/><circle cx="1160" cy="240" r="1"/><circle cx="1160" cy="280" r="1"/><circle cx="1160" cy="320" r="1"/><circle cx="1160" cy="360" r="1"/><circle cx="1160" cy="400" r="1"/><circle cx="1160" cy="440" r="1"/><circle cx="1160" cy="480" r="1"/><circle cx="1160" cy="520" r="1"/><circle cx="1160" cy="560" r="1"/><circle cx="1160" cy="600" r="1"/>
  </g>
  <rect x="50" y="50" width="1100" height="530" rx="24" fill="#0d1127" stroke="#6366f1" stroke-width="3"/>
  <rect x="50" y="50" width="1100" height="10" rx="4" fill="#818cf8"/>
  <rect x="90" y="95" width="320" height="40" rx="8" fill="#4338ca"/>
  <text x="105" y="122" fill="#ffffff" font-size="16" font-family="sans-serif" font-weight="bold">AUDIO &amp; 1-MINUTE SUMMARY</text>
  <text x="90" y="195" fill="#ffffff" font-size="44" font-family="sans-serif" font-weight="bold">모닝 브리핑 (Morning Briefing)</text>
  <text x="90" y="245" fill="#a5b4fc" font-size="22" font-family="sans-serif" font-weight="bold">바쁜 아침 1분! 핵심 3줄 요약 &amp; 이어폰 오디오 뉴스</text>
  <text x="90" y="315" fill="#cbd5e1" font-size="20" font-family="sans-serif">• 출근길 1분 완독: 오늘 아침 꼭 알아야 할 3대 헤드라인</text>
  <text x="90" y="365" fill="#cbd5e1" font-size="20" font-family="sans-serif">• 화면을 보지 않고 이어폰으로 바로 듣는 오디오 브리핑</text>
  <text x="90" y="415" fill="#cbd5e1" font-size="20" font-family="sans-serif">• 간추린 시사 뉴스 &amp; 미국 증시 마켓 랩업 원클릭 재생</text>
  <rect x="90" y="475" width="1020" height="60" rx="12" fill="#1a1c3b" stroke="#4338ca" stroke-width="1"/>
  <text x="115" y="512" fill="#a5b4fc" font-size="20" font-family="sans-serif" font-weight="bold">briefing.soulcomfortstudio.com</text>
  <text x="750" y="512" fill="#94a3b8" font-size="18" font-family="sans-serif">Listen on Mobile Anywhere · Anytime</text>
  <!-- Chart Box -->
  <rect x="780" y="150" width="320" height="290" rx="16" fill="#131738" stroke="#4f46e5" stroke-width="2"/>
  <text x="800" y="182" fill="#818cf8" font-size="13" font-family="sans-serif" font-weight="bold">MARKET &amp; AUDIO PULSE</text>
  <rect x="1015" y="165" width="65" height="22" rx="6" fill="#065f46" stroke="#34d399" stroke-width="1"/>
  <text x="1024" y="181" fill="#34d399" font-size="11" font-family="sans-serif" font-weight="bold">LIVE +1.8%</text>
  <line x1="800" y1="230" x2="1080" y2="230" stroke="#312e81" stroke-width="1"/>
  <line x1="800" y1="280" x2="1080" y2="280" stroke="#312e81" stroke-width="1"/>
  <line x1="800" y1="330" x2="1080" y2="330" stroke="#312e81" stroke-width="1"/>
  <polygon points="810,380 855,360 900,375 945,330 990,345 1030,290 1065,260 1065,395 810,395" fill="#6366f1" opacity="0.25"/>
  <polyline points="810,380 855,360 900,375 945,330 990,345 1030,290 1065,260" fill="none" stroke="#38bdf8" stroke-width="4" stroke-linecap="round"/>
  <circle cx="1065" cy="260" r="6" fill="#ffffff" stroke="#10b981" stroke-width="3"/>
</svg>